<svg xmlns="http://www.w3.org/2000/svg" width="54.174" height="55" viewBox="0 0 54.174 55"><g id="experience" transform="translate(-3.844)"><path id="Path_4479" data-name="Path 4479" d="M369.008,305.178v5.862a1.1,1.1,0,0,1-1.1,1.1h-6.921l-8.725-15.976,1.244-2.279,1.583,1.583a.219.219,0,0,0,.31,0l.711-.711.079-.079a.22.22,0,0,1,.31,0l1.671,1.672a.22.22,0,0,0,.31,0l1.671-1.672a.219.219,0,0,1,.31,0l.791.791a.219.219,0,0,0,.31,0l1.583-1.583,5.59,10.237a2.2,2.2,0,0,1,.27,1.055Z" transform="translate(-310.989 -262.316)" fill="#80e29d"></path><path id="Path_4480" data-name="Path 4480" d="M365.6,312.141h-4.616l-8.725-15.976,1.244-2.279,1.583,1.583a.219.219,0,0,0,.31,0l.711-.711Z" transform="translate(-310.989 -262.316)" fill="#78d090"></path><path id="Path_4481" data-name="Path 4481" d="M11.866,349.652H4.945a1.1,1.1,0,0,1-1.1-1.1V347.2a2.2,2.2,0,0,1,.269-1.055L9.7,335.911l1.583,1.583a.22.22,0,0,0,.311,0l.791-.791a.22.22,0,0,1,.311,0l1.048,1.048.623.623a.22.22,0,0,0,.311,0l1.671-1.672a.22.22,0,0,1,.311,0l.791.791a.22.22,0,0,0,.311,0l1.583-1.583Z" transform="translate(0 -299.827)" fill="#dd5790"></path><path id="Path_4482" data-name="Path 4482" d="M40.164,349.653H35.548l6.5-11.9.623.623a.219.219,0,0,0,.311,0L44.65,336.7a.219.219,0,0,1,.311,0l.791.791a.219.219,0,0,0,.311,0l1.583-1.583Z" transform="translate(-28.298 -299.828)" fill="#da387d"></path><path id="Path_4483" data-name="Path 4483" d="M370.8,229.244l.79.79a.22.22,0,0,0,.311,0l1.583-1.583-4.049-7.416a.881.881,0,0,0-1.546,0l-4.049,7.416,1.583,1.583a.22.22,0,0,0,.311,0l.79-.79a.22.22,0,0,1,.311,0l1.671,1.671a.22.22,0,0,0,.311,0l1.671-1.671A.221.221,0,0,1,370.8,229.244Z" transform="translate(-321.325 -196.881)" fill="#d8e2f1"></path><path id="Path_4484" data-name="Path 4484" d="M366.447,278.552l-1.541-2.822-1.065,1.95,1.583,1.583a.22.22,0,0,0,.311,0Z" transform="translate(-321.325 -246.111)" fill="#b9cbea"></path><path id="Path_4485" data-name="Path 4485" d="M65.343,271.27l.79.79a.22.22,0,0,0,.311,0l1.583-1.583-4.049-7.416a.881.881,0,0,0-1.546,0l-4.049,7.416,1.583,1.583a.22.22,0,0,0,.311,0l.79-.79a.22.22,0,0,1,.311,0l1.671,1.67a.22.22,0,0,0,.311,0l1.671-1.67A.221.221,0,0,1,65.343,271.27Z" transform="translate(-48.68 -234.393)" fill="#d8e2f1"></path><path id="Path_4486" data-name="Path 4486" d="M96.964,303.414l1.671-1.671a.22.22,0,0,1,.311,0l.79.79a.22.22,0,0,0,.311,0l1.583-1.583-2.3-4.207-3.3,6.049.622.622A.22.22,0,0,0,96.964,303.414Z" transform="translate(-82.283 -264.866)" fill="#b9cbea"></path><g id="Group_977" data-name="Group 977" transform="translate(30.105 0)"><path id="Path_4487" data-name="Path 4487" d="M256,14.515h8.224a.661.661,0,0,0,.547-1.031l-1.363-2.012a.661.661,0,0,1,0-.741l1.363-2.012a.661.661,0,0,0-.547-1.031H256Z" transform="translate(-255.174 -6.862)" fill="#dd5790"></path><g id="Group_976" data-name="Group 976"><path id="Path_4488" data-name="Path 4488" d="M249.138,16.037a.826.826,0,0,1-.826-.826V.826a.826.826,0,1,1,1.652,0V15.211A.826.826,0,0,1,249.138,16.037Z" transform="translate(-248.312 0)" fill="#5766cb"></path></g></g><path id="Path_4489" data-name="Path 4489" d="M107.488,218.819H69.358a1.1,1.1,0,0,1-.966-1.629L83.6,189.333l1.583,1.583a.22.22,0,0,0,.311,0l.791-.791a.22.22,0,0,1,.311,0l1.671,1.671a.22.22,0,0,0,.311,0l1.671-1.671a.22.22,0,0,1,.311,0l.077.077.713.713a.22.22,0,0,0,.311,0l1.583-1.583,15.21,27.858a1.1,1.1,0,0,1-.967,1.629Z" transform="translate(-57.492 -168.995)" fill="#5766cb"></path><path id="Path_4490" data-name="Path 4490" d="M293.464,218.818h-1.227L276.613,190.2l.714.714a.22.22,0,0,0,.311,0l1.583-1.583,15.21,27.858A1.1,1.1,0,0,1,293.464,218.818Z" transform="translate(-243.468 -168.994)" fill="#3342aa"></path><path id="Path_4491" data-name="Path 4491" d="M218.072,124.692l.79.79a.22.22,0,0,0,.311,0l1.583-1.583-4.049-7.416a.881.881,0,0,0-1.546,0l-4.049,7.416,1.583,1.583a.22.22,0,0,0,.311,0l.79-.79a.22.22,0,0,1,.311,0l1.671,1.671a.22.22,0,0,0,.311,0l1.671-1.671A.22.22,0,0,1,218.072,124.692Z" transform="translate(-185.003 -103.56)" fill="#d8e2f1"></path><path id="Path_4492" data-name="Path 4492" d="M242.418,116.483l-.768,1.407,3.755,6.877.714.714a.22.22,0,0,0,.311,0l1.583-1.583-4.049-7.416A.881.881,0,0,0,242.418,116.483Z" transform="translate(-212.26 -103.56)" fill="#b9cbea"></path><path id="Path_4493" data-name="Path 4493" d="M176.587,254.117l-6.108,7.349a.44.44,0,0,0,.339.722h1.656a.44.44,0,0,1,.421.571L167.46,280.25a1.1,1.1,0,0,0,1.052,1.428h16.829a1.1,1.1,0,0,0,1.052-1.428l-5.435-17.491a.44.44,0,0,1,.421-.571h1.656a.44.44,0,0,0,.339-.722l-6.108-7.349A.441.441,0,0,0,176.587,254.117Z" transform="translate(-145.995 -226.677)" fill="#ffe07d"></path></g></svg>